<?xml version="1.0" encoding="UTF-8" standalone="no"?>
<svg
   xmlns:dc="http://purl.org/dc/elements/1.1/"
   xmlns:cc="http://creativecommons.org/ns#"
   xmlns:rdf="http://www.w3.org/1999/02/22-rdf-syntax-ns#"
   xmlns:svg="http://www.w3.org/2000/svg"
   xmlns="http://www.w3.org/2000/svg"
   viewBox="0 0 726.71997 136.32001"
   height="136.32001"
   width="726.71997"
   xml:space="preserve"
   id="svg2"
   version="1.1"><metadata
     id="metadata8"><rdf:RDF><cc:Work
         rdf:about=""><dc:format>image/svg+xml</dc:format><dc:type
           rdf:resource="http://purl.org/dc/dcmitype/StillImage" /></cc:Work></rdf:RDF></metadata><defs
     id="defs6"><clipPath
       id="clipPath42"
       clipPathUnits="userSpaceOnUse"><path
         id="path40"
         d="m 4.47656,547.992 c 0.10938,0.801 0.22266,1.598 0.33985,2.391 C 4.72266,549.746 4.63672,549.105 4.55078,548.469 4.52344,548.309 4.5,548.152 4.47656,547.992 m 0.57032,3.969 c 0.05468,0.355 0.10937,0.727 0.16406,1.082 -0.05469,-0.352 -0.10547,-0.699 -0.16016,-1.051 0,-0.008 0,-0.019 -0.0039,-0.031 m 1.49218,9.293 c 0.01563,0.078 0.03125,0.168 0.04297,0.25 -0.00781,-0.055 -0.01562,-0.109 -0.02734,-0.164 -0.00391,-0.027 -0.00781,-0.059 -0.01563,-0.086 m 4.11724,20.5 c 0.0898,0.387 0.1796,0.769 0.2695,1.152 -0.0469,-0.199 -0.0899,-0.398 -0.1367,-0.601 -0.043,-0.184 -0.086,-0.367 -0.1328,-0.551 m 2.7187,10.988 c 0.1094,0.418 0.2188,0.836 0.332,1.254 -0.0586,-0.223 -0.1172,-0.449 -0.1718,-0.672 -0.0547,-0.195 -0.1094,-0.386 -0.1602,-0.582 m 3.1094,10.996 c 0.039,0.137 0.082,0.278 0.1211,0.414 -0.0196,-0.066 -0.0391,-0.136 -0.0586,-0.203 -0.0235,-0.07 -0.043,-0.14 -0.0625,-0.211 m 2.2148,7.055 c 0.0781,0.242 0.1641,0.508 0.2461,0.754 -0.0234,-0.078 -0.0508,-0.152 -0.0742,-0.227 l -0.0742,-0.234 c -0.0313,-0.098 -0.0664,-0.195 -0.0977,-0.293 m 3.0938,8.992 c 0.0429,0.117 0.0898,0.25 0.1328,0.367 -0.0235,-0.066 -0.0469,-0.132 -0.0703,-0.199 -0.0235,-0.055 -0.043,-0.109 -0.0625,-0.168 m 1.125,3.059 c 0.1367,0.367 0.2695,0.722 0.4101,1.09 -0.0937,-0.25 -0.1875,-0.504 -0.2812,-0.758 -0.043,-0.113 -0.086,-0.223 -0.1289,-0.332 m 1.957,5.094 c 0.0938,0.238 0.1914,0.48 0.2852,0.718 -0.0391,-0.101 -0.0782,-0.203 -0.1172,-0.304 -0.0547,-0.137 -0.1133,-0.278 -0.168,-0.414 m 1.2969,3.226 c 0.3008,0.731 0.6054,1.461 0.9062,2.188 -0.2656,-0.637 -0.5273,-1.274 -0.789,-1.914 -0.0391,-0.09 -0.0782,-0.184 -0.1172,-0.274 m 3.8633,8.984 c 1.3281,2.95 2.6875,5.832 4.082,8.653 -1.3477,-2.731 -2.6641,-5.52 -3.9531,-8.367 -0.043,-0.094 -0.086,-0.192 -0.1289,-0.286 m 17.3632,32.309 c 1.7461,2.754 3.5274,5.434 5.3321,8.035 l -0.2813,-0.41 -1.582,-2.324 c -1.168,-1.738 -2.3242,-3.5 -3.4688,-5.301 m 5.5704,8.379 c 1.4687,2.109 2.9492,4.164 4.4492,6.18 l -1.4141,-1.926 -1.5625,-2.168 -1.4726,-2.086 m 7.3242,9.953 c 0.5781,0.746 1.1523,1.473 1.7383,2.203 l -1.7188,-2.179 c -0.0078,-0.008 -0.0117,-0.016 -0.0195,-0.024 m 2.2656,2.863 c 0.3086,0.391 0.6289,0.786 0.9414,1.168 l -0.9414,-1.168 m 1.1914,1.469 c 0.4336,0.535 0.8789,1.074 1.3203,1.602 L 63.75,695.121 m 1.6641,2.016 c 1.3437,1.605 2.707,3.187 4.0703,4.726 l -2.0391,-2.34 -2.0312,-2.386 m 22.8828,23.562 c 1.875,1.66 3.75,3.27 5.6367,4.828 -1.8828,-1.562 -3.7617,-3.172 -5.6367,-4.828 m 115.8481,3.149 h -0.004 v 49.535 c 0,0 -0.618,-0.039 -1.766,-0.16 l -0.531,-0.055 -0.961,-0.098 c 2.117,0.25 3.262,0.321 3.262,0.321 v -49.543 m -101.176,8.761 c 0.371,0.278 0.75,0.551 1.117,0.825 l -1.117,-0.825 m 1.719,1.262 c 1.789,1.301 3.57,2.551 5.351,3.77 -1.137,-0.778 -2.273,-1.571 -3.418,-2.383 l -1.933,-1.387 m 7.171,4.996 c 2.121,1.414 4.231,2.77 6.336,4.074 l -1.82,-1.144 -2.367,-1.52 -2.149,-1.41 m 12.297,7.629 c 1.27,0.731 2.524,1.434 3.782,2.129 -0.715,-0.395 -1.43,-0.797 -2.149,-1.199 l -1.633,-0.93 m 13.211,7.02 c 1.586,0.769 3.153,1.511 4.707,2.226 -0.133,-0.058 -0.265,-0.121 -0.398,-0.183 -1.418,-0.653 -2.86,-1.344 -4.309,-2.043 m 6.918,3.23 c 1.117,0.496 2.219,0.977 3.317,1.445 l -1.696,-0.738 c -0.535,-0.23 -1.078,-0.465 -1.621,-0.707 m 7.621,3.231 c 14.949,6.011 28.004,9.367 37.328,11.214 l -2.273,-0.476 c -6.856,-1.445 -15.453,-3.66 -25.152,-7.031 l -1.782,-0.633 c -2.632,-0.942 -5.343,-1.961 -8.121,-3.074 m 37.399,11.23 c 5.047,1 8.992,1.559 11.543,1.859 l -0.653,-0.086 -0.316,-0.039 -0.789,-0.097 c -1.621,-0.215 -3.617,-0.52 -5.926,-0.918 l -1.18,-0.215 -1.25,-0.234 -1.273,-0.247 -0.156,-0.023" /></clipPath><linearGradient
       id="linearGradient52"
       spreadMethod="pad"
       gradientTransform="matrix(-780.629,-355.875,-355.875,780.629,236.47,709.146)"
       gradientUnits="userSpaceOnUse"
       y2="0"
       x2="1"
       y1="0"
       x1="0"><stop
         id="stop44"
         offset="0"
         style="stop-opacity:1;stop-color:#0062ff" /><stop
         id="stop46"
         offset="0.00732846"
         style="stop-opacity:1;stop-color:#0062ff" /><stop
         id="stop48"
         offset="0.612003"
         style="stop-opacity:1;stop-color:#002c75" /><stop
         id="stop50"
         offset="1"
         style="stop-opacity:1;stop-color:#00225b" /></linearGradient><clipPath
       id="clipPath62"
       clipPathUnits="userSpaceOnUse"><path
         id="path60"
         d="m 0.949219,512.152 c 0.753911,12.536 1.945311,24.477 3.527341,35.84 0.02344,0.16 0.04688,0.317 0.07422,0.477 0.08594,0.636 0.17188,1.277 0.26563,1.914 0.07812,0.535 0.15234,1.047 0.23047,1.578 0.0039,0.012 0.0039,0.023 0.0039,0.031 0.05469,0.352 0.10547,0.699 0.16016,1.051 0.41797,2.773 0.86328,5.504 1.32812,8.211 0.00782,0.027 0.01172,0.059 0.01563,0.086 0.01172,0.055 0.01953,0.109 0.02734,0.164 1.21094,6.98 2.57031,13.719 4.07427,20.25 0.0468,0.184 0.0898,0.367 0.1328,0.551 0.0468,0.203 0.0898,0.402 0.1367,0.601 0.7773,3.336 1.5976,6.617 2.4492,9.836 0.0508,0.196 0.1055,0.387 0.1602,0.582 0.0546,0.223 0.1132,0.449 0.1718,0.672 0.8907,3.309 1.8125,6.555 2.7774,9.742 0.0195,0.071 0.039,0.141 0.0625,0.211 0.0195,0.067 0.039,0.137 0.0586,0.203 0.6836,2.246 1.375,4.45 2.0937,6.641 0.0313,0.098 0.0664,0.195 0.0977,0.293 l 0.0742,0.234 c 0.0234,0.075 0.0508,0.149 0.0742,0.227 0.9258,2.801 1.8672,5.531 2.8477,8.238 0.0195,0.059 0.039,0.113 0.0625,0.168 0.0234,0.067 0.0468,0.133 0.0703,0.199 0.3242,0.899 0.6601,1.801 0.9922,2.692 0.0429,0.109 0.0859,0.219 0.1289,0.332 0.0937,0.254 0.1875,0.508 0.2812,0.758 0.5078,1.343 1.0274,2.683 1.5469,4.004 0.0547,0.136 0.1133,0.277 0.168,0.414 0.039,0.101 0.0781,0.203 0.1172,0.304 0.3359,0.844 0.6718,1.672 1.0117,2.508 0.039,0.09 0.0781,0.184 0.1172,0.274 0.2617,0.64 0.5234,1.277 0.789,1.914 0.9649,2.304 1.9532,4.57 2.9571,6.796 0.0429,0.094 0.0859,0.192 0.1289,0.286 1.289,2.847 2.6054,5.636 3.9531,8.367 4.168,8.441 8.6172,16.316 13.2812,23.656 1.1446,1.801 2.3008,3.563 3.4688,5.301 l 1.582,2.324 0.2813,0.41 c 0.082,0.117 0.1601,0.231 0.2383,0.344 l 1.4726,2.086 1.5625,2.168 1.4141,1.926 c 0.9492,1.269 1.9179,2.543 2.875,3.773 0.0078,0.008 0.0117,0.016 0.0195,0.024 l 1.7188,2.179 c 0.1757,0.227 0.3476,0.442 0.5273,0.66 L 63.5,694.82 c 0.0859,0.102 0.1641,0.2 0.25,0.301 l 1.3203,1.602 c 0.1172,0.14 0.2266,0.269 0.3438,0.414 l 2.0312,2.386 2.0391,2.34 c 6.1289,6.926 12.4336,13.18 18.8125,18.836 1.875,1.656 3.7539,3.266 5.6367,4.828 3.0039,2.489 6.0234,4.844 9.0354,7.082 l 1.117,0.825 c 0.203,0.148 0.398,0.289 0.602,0.437 l 1.933,1.387 c 1.145,0.812 2.281,1.605 3.418,2.383 0.602,0.41 1.219,0.824 1.82,1.226 l 2.149,1.41 2.367,1.52 1.82,1.144 c 1.996,1.231 3.989,2.418 5.961,3.555 l 1.633,0.93 c 0.719,0.402 1.434,0.804 2.149,1.199 3.183,1.746 6.335,3.375 9.429,4.891 1.449,0.699 2.891,1.39 4.309,2.043 0.133,0.062 0.265,0.125 0.398,0.183 0.739,0.34 1.481,0.676 2.211,1.004 0.543,0.242 1.086,0.477 1.621,0.707 l 1.696,0.738 c 1.445,0.618 2.89,1.215 4.304,1.786 2.778,1.113 5.489,2.132 8.121,3.074 l 1.782,0.633 c 9.699,3.371 18.296,5.586 25.152,7.031 l 2.273,0.476 c 0.024,0.004 0.047,0.012 0.071,0.016 l 0.156,0.023 1.273,0.247 1.25,0.234 1.18,0.215 c 2.309,0.398 4.305,0.703 5.926,0.918 l 0.789,0.097 0.316,0.039 0.653,0.086 c 0.011,0 0.023,0.004 0.035,0.004 l 0.961,0.098 0.531,0.055 c 1.148,0.121 1.766,0.16 1.766,0.16 v -49.535 h -5.653 c 0,0 -162.4919,-10.094 -197.538781,-211.696" /></clipPath><linearGradient
       id="linearGradient72"
       spreadMethod="pad"
       gradientTransform="matrix(-780.629,-355.875,-355.875,780.629,236.47,709.146)"
       gradientUnits="userSpaceOnUse"
       y2="0"
       x2="1"
       y1="0"
       x1="0"><stop
         id="stop64"
         offset="0"
         style="stop-opacity:1;stop-color:#33cc99" /><stop
         id="stop66"
         offset="0.00732846"
         style="stop-opacity:1;stop-color:#33cc99" /><stop
         id="stop68"
         offset="0.612003"
         style="stop-opacity:1;stop-color:#175c46" /><stop
         id="stop70"
         offset="1"
         style="stop-opacity:1;stop-color:#124737" /></linearGradient><clipPath
       id="clipPath82"
       clipPathUnits="userSpaceOnUse"><path
         id="path80"
         d="m 570.551,186.359 v 49.532 h 5.652 c 0,0 335.625,2.656 383.5,192.922 v -2.297 c 0,-0.856 -0.008,-1.692 -0.015,-2.539 v 2.531 c 0,-1.067 -0.016,-2.11 -0.032,-3.156 l -0.027,-1.688 c -0.043,-1.484 -0.09,-2.949 -0.145,-4.394 l -0.011,-0.149 -0.149,-2.687 -0.051,-1.043 c -0.132,-1.805 -0.238,-3.614 -0.406,-5.411 l -0.047,-0.402 c -0.242,-2.625 -0.523,-5.23 -0.871,-7.793 l -0.086,-0.699 c -0.234,-1.723 -0.484,-3.43 -0.773,-5.109 l -0.117,-0.672 c -0.157,-0.957 -0.328,-1.926 -0.504,-2.871 -0.184,-0.95 -0.371,-1.899 -0.543,-2.825 l -0.086,-0.41 -0.43,-2.062 c -0.199,-0.946 -0.418,-1.895 -0.633,-2.828 h -0.011 l -0.059,-0.286 -0.531,-2.199 -0.172,-0.672 c -0.332,-1.308 -0.676,-2.605 -1.051,-3.906 l -0.098,-0.398 c -0.414,-1.496 -0.847,-2.969 -1.292,-4.414 -0.43,-1.399 -0.875,-2.778 -1.336,-4.153 l -0.153,-0.468 c -0.422,-1.211 -0.836,-2.403 -1.265,-3.594 l -0.305,-0.84 -0.488,-1.27 -0.703,-1.836 -0.172,-0.457 c -0.219,-0.574 -0.446,-1.14 -0.676,-1.711 -0.086,-0.218 -0.176,-0.437 -0.266,-0.656 -0.242,-0.578 -0.484,-1.152 -0.738,-1.726 l -0.266,-0.625 c -0.488,-1.133 -0.992,-2.278 -1.496,-3.391 l -0.258,-0.547 c -0.472,-1.062 -0.976,-2.105 -1.492,-3.152 l -0.113,-0.266 -0.199,-0.379 c -0.563,-1.179 -1.149,-2.351 -1.754,-3.504 -0.504,-0.961 -1.008,-1.925 -1.52,-2.875 l -0.703,-1.308 h -0.015 l -0.317,-0.567 c -0.488,-0.918 -1.008,-1.824 -1.531,-2.714 -0.68,-1.192 -1.383,-2.352 -2.102,-3.512 l -0.703,-1.133 -1.445,-2.285 -0.348,-0.559 -0.547,-0.828 -1.648,-2.473 -0.527,-0.773 c -1.524,-2.215 -3.075,-4.363 -4.68,-6.5 l -0.027,-0.031 c -0.75,-0.988 -1.497,-1.985 -2.258,-2.938 l -0.313,-0.402 -0.359,-0.457 c -0.789,-0.981 -1.563,-1.945 -2.34,-2.895 l -0.371,-0.437 -1.82,-2.156 -0.579,-0.676 c -0.929,-1.082 -1.878,-2.168 -2.839,-3.223 l -0.075,-0.09 -2.406,-2.625 -0.316,-0.339 -0.102,-0.11 -0.101,-0.098 c -1.68,-1.796 -3.403,-3.546 -5.149,-5.285 l -0.711,-0.715 c -0.058,-0.058 -0.14,-0.14 -0.203,-0.199 l -0.695,-0.676 -0.863,-0.832 -1.407,-1.335 -2.593,-2.403 -0.575,-0.539 -0.015,-0.008 -0.828,-0.734 -2.387,-2.125 c -0.235,-0.215 -0.477,-0.426 -0.715,-0.637 -0.32,-0.277 -0.664,-0.574 -0.988,-0.851 -0.457,-0.395 -0.922,-0.782 -1.383,-1.172 l -0.199,-0.164 -1.567,-1.289 -1.304,-1.094 -0.473,-0.391 c -0.371,-0.304 -0.738,-0.605 -1.113,-0.906 -2.766,-2.223 -5.586,-4.391 -8.457,-6.508 -0.332,-0.242 -0.661,-0.48 -0.993,-0.719 l -0.117,-0.089 c -0.23,-0.168 -0.461,-0.34 -0.691,-0.508 -0.535,-0.387 -1.098,-0.789 -1.637,-1.176 -0.301,-0.215 -0.605,-0.43 -0.914,-0.641 l -0.066,-0.039 -0.532,-0.39 c -0.031,-0.02 -0.058,-0.039 -0.086,-0.059 -1.066,-0.75 -2.164,-1.508 -3.242,-2.242 -0.082,-0.059 -0.164,-0.113 -0.25,-0.168 l -0.316,-0.219 c -0.176,-0.117 -0.348,-0.234 -0.524,-0.351 -0.937,-0.637 -1.882,-1.266 -2.835,-1.891 l -0.586,-0.383 -2.508,-1.621 -0.305,-0.183 c -1.144,-0.735 -2.293,-1.465 -3.441,-2.168 -0.278,-0.176 -0.551,-0.348 -0.828,-0.524 -0.465,-0.285 -0.93,-0.57 -1.399,-0.851 -0.281,-0.168 -0.562,-0.336 -0.844,-0.5 l -1.578,-0.95 -2.383,-1.406 -1.378,-0.793 -0.946,-0.547 -0.66,-0.379 -0.945,-0.539 -1.192,-0.672 -0.933,-0.515 -1.11,-0.617 -1.16,-0.633 c -1.289,-0.715 -2.609,-1.418 -3.918,-2.114 -1.133,-0.593 -2.265,-1.191 -3.398,-1.777 -0.231,-0.117 -0.461,-0.238 -0.696,-0.355 -3.054,-1.567 -6.132,-3.09 -9.238,-4.578 -0.89,-0.426 -1.789,-0.848 -2.683,-1.266 l -0.356,-0.164 c -1.234,-0.578 -2.473,-1.156 -3.715,-1.711 -1.363,-0.613 -2.73,-1.231 -4.093,-1.836 -0.485,-0.219 -0.973,-0.438 -1.461,-0.652 -0.614,-0.27 -1.207,-0.528 -1.821,-0.793 -0.277,-0.118 -0.554,-0.235 -0.832,-0.352 -1.379,-0.586 -2.761,-1.172 -4.136,-1.75 -0.438,-0.183 -0.872,-0.367 -1.305,-0.547 -0.395,-0.164 -0.789,-0.324 -1.184,-0.488 -0.355,-0.145 -0.715,-0.285 -1.07,-0.43 -0.336,-0.136 -0.672,-0.277 -1.008,-0.414 -1.215,-0.488 -2.414,-0.969 -3.633,-1.449 -0.175,-0.066 -0.351,-0.137 -0.527,-0.203 -0.113,-0.047 -0.23,-0.094 -0.348,-0.141 -0.855,-0.336 -1.711,-0.668 -2.566,-0.996 -0.285,-0.109 -0.57,-0.215 -0.856,-0.32 -1.406,-0.535 -2.796,-1.067 -4.21,-1.582 -0.473,-0.184 -0.95,-0.363 -1.426,-0.539 -0.801,-0.293 -1.571,-0.574 -2.375,-0.867 -0.547,-0.196 -1.098,-0.391 -1.649,-0.586 -0.988,-0.364 -1.98,-0.704 -2.972,-1.055 -1.078,-0.387 -2.161,-0.758 -3.246,-1.133 -1.231,-0.422 -2.457,-0.836 -3.692,-1.25 -0.504,-0.168 -1.012,-0.332 -1.515,-0.496 -1.758,-0.59 -3.52,-1.164 -5.286,-1.73 -4.843,-1.551 -9.683,-3.024 -14.519,-4.43 -0.453,-0.129 -0.903,-0.258 -1.356,-0.387 l -1.078,-0.312 c -5.273,-1.508 -10.531,-2.93 -15.761,-4.274 -0.004,0 -0.008,0 -0.012,-0.004 -0.059,-0.011 -0.117,-0.027 -0.176,-0.043 -2.434,-0.625 -4.832,-1.226 -7.254,-1.816 -0.308,-0.074 -0.621,-0.145 -0.933,-0.219 -0.418,-0.105 -0.84,-0.211 -1.258,-0.312 -4.176,-1.004 -8.325,-1.961 -12.442,-2.868 -0.261,-0.058 -0.519,-0.113 -0.777,-0.167 l -2.027,-0.442 -0.008,-0.008 c -1.696,-0.367 -3.387,-0.722 -5.071,-1.078 -0.355,-0.07 -0.71,-0.144 -1.066,-0.219 -4.566,-0.945 -9.074,-1.832 -13.531,-2.668 -0.285,-0.054 -0.57,-0.105 -0.856,-0.16 l -0.125,-0.023 c -1.738,-0.324 -3.464,-0.637 -5.183,-0.945 l -0.031,-0.004 c -0.008,-0.004 -0.016,-0.004 -0.028,-0.008 -3.465,-0.617 -6.894,-1.207 -10.273,-1.762 l -2.094,-0.34 c -0.699,-0.117 -1.395,-0.226 -2.09,-0.34 -57.281,-9.117 -100.152,-9.457 -100.152,-9.457" /></clipPath><linearGradient
       id="linearGradient92"
       spreadMethod="pad"
       gradientTransform="matrix(925.515,357.292,357.292,-925.515,537.775,197.243)"
       gradientUnits="userSpaceOnUse"
       y2="0"
       x2="1"
       y1="0"
       x1="0"><stop
         id="stop84"
         offset="0"
         style="stop-opacity:1;stop-color:#0062ff" /><stop
         id="stop86"
         offset="0.00732846"
         style="stop-opacity:1;stop-color:#0062ff" /><stop
         id="stop88"
         offset="0.612003"
         style="stop-opacity:1;stop-color:#002c75" /><stop
         id="stop90"
         offset="1"
         style="stop-opacity:1;stop-color:#00225b" /></linearGradient><clipPath
       id="clipPath102"
       clipPathUnits="userSpaceOnUse"><path
         id="path100"
         d="m 670.703,195.816 c 0.695,0.114 1.391,0.223 2.09,0.34 l 2.094,0.34 c -1.407,-0.23 -2.793,-0.457 -4.184,-0.68 m 14.457,2.442 c 0.012,0.004 0.02,0.004 0.028,0.008 l 0.031,0.004 c -0.008,0 -0.047,-0.008 -0.059,-0.012 m 5.242,0.957 0.125,0.023 c 0.286,0.055 0.571,0.106 0.856,0.16 -0.332,-0.062 -0.649,-0.121 -0.981,-0.183 m 14.512,2.851 c 0.356,0.075 0.711,0.149 1.066,0.219 -0.351,-0.07 -0.714,-0.148 -1.066,-0.219 m 6.137,1.297 0.008,0.008 2.027,0.442 c 0.258,0.054 0.516,0.109 0.777,0.167 -0.945,-0.21 -1.875,-0.414 -2.812,-0.617 m 15.254,3.485 c 0.418,0.101 0.84,0.207 1.258,0.312 0.312,0.074 0.625,0.145 0.933,0.219 -0.723,-0.176 -1.469,-0.359 -2.191,-0.531 m 9.445,2.347 c 0.059,0.016 0.117,0.032 0.176,0.043 0.004,0.004 0.008,0.004 0.012,0.004 -0.059,-0.015 -0.129,-0.031 -0.188,-0.047 m 15.949,4.321 1.078,0.312 c 0.453,0.129 0.903,0.258 1.356,0.387 -0.809,-0.235 -1.625,-0.469 -2.434,-0.699 m 16.953,5.129 c 1.766,0.566 3.528,1.14 5.286,1.73 0.503,0.164 1.011,0.328 1.515,0.496 -2.265,-0.758 -4.531,-1.5 -6.801,-2.226 m 10.493,3.476 c 1.085,0.375 2.168,0.746 3.246,1.133 0.992,0.351 1.984,0.691 2.972,1.055 0.551,0.195 1.102,0.39 1.649,0.586 -2.61,-0.946 -5.25,-1.875 -7.867,-2.774 m 10.242,3.641 c 0.476,0.176 0.953,0.355 1.426,0.539 1.414,0.515 2.804,1.047 4.21,1.582 0.286,0.105 0.571,0.211 0.856,0.32 -2.152,-0.824 -4.332,-1.648 -6.492,-2.441 m 9.058,3.437 c 0.118,0.047 0.235,0.094 0.348,0.141 0.176,0.066 0.352,0.137 0.527,0.203 -0.293,-0.113 -0.582,-0.23 -0.875,-0.344 m 4.508,1.793 c 0.336,0.137 0.672,0.278 1.008,0.414 0.355,0.145 0.715,0.285 1.07,0.43 -0.687,-0.281 -1.39,-0.566 -2.078,-0.844 m 3.262,1.332 c 0.433,0.18 0.867,0.364 1.305,0.547 1.375,0.578 2.757,1.164 4.136,1.75 0.278,0.117 0.555,0.234 0.832,0.352 -2.082,-0.899 -4.179,-1.785 -6.273,-2.649 m 8.094,3.442 c 0.488,0.214 0.976,0.433 1.461,0.652 1.363,0.605 2.73,1.223 4.093,1.836 1.242,0.555 2.481,1.133 3.715,1.711 l 0.356,0.164 c 0.894,0.418 1.793,0.84 2.683,1.266 -4.066,-1.946 -8.172,-3.821 -12.308,-5.629 m 21.546,10.207 c 0.235,0.117 0.465,0.238 0.696,0.355 1.133,0.586 2.265,1.184 3.398,1.777 1.309,0.696 2.629,1.399 3.918,2.114 l 1.16,0.633 1.11,0.617 0.933,0.515 1.192,0.672 0.945,0.539 0.66,0.379 0.946,0.547 1.378,0.793 2.383,1.406 1.578,0.95 c 0.282,0.164 0.563,0.332 0.844,0.5 -6.863,-4.172 -13.926,-8.098 -21.141,-11.797 m 22.54,12.648 c 0.277,0.176 0.55,0.348 0.828,0.524 1.148,0.703 2.297,1.433 3.441,2.168 l 0.305,0.183 2.508,1.621 0.586,0.383 c -2.516,-1.656 -5.09,-3.289 -7.668,-4.879 m 10.503,6.77 c 0.176,0.117 0.348,0.234 0.524,0.351 l 0.316,0.219 c 0.086,0.055 0.168,0.109 0.25,0.168 -0.367,-0.25 -0.718,-0.492 -1.09,-0.738 m 4.332,2.98 c 0.028,0.02 0.055,0.039 0.086,0.059 l 0.532,0.39 0.066,0.039 c 0.309,0.211 0.613,0.426 0.914,0.641 -0.539,-0.383 -1.055,-0.746 -1.598,-1.129 m 3.235,2.305 c 0.23,0.168 0.461,0.34 0.691,0.508 l 0.117,0.089 c 0.332,0.239 0.661,0.477 0.993,0.719 -0.606,-0.445 -1.196,-0.875 -1.801,-1.316 m 10.258,7.824 c 0.375,0.301 0.742,0.602 1.113,0.906 l 0.473,0.391 1.304,1.094 1.567,1.289 0.199,0.164 c 0.461,0.39 0.926,0.777 1.383,1.172 -1.981,-1.703 -3.992,-3.371 -6.039,-5.016 m 7.027,5.867 c 0.238,0.211 0.48,0.422 0.715,0.637 l 2.387,2.125 0.828,0.734 0.015,0.008 0.575,0.539 2.593,2.403 1.407,1.335 0.863,0.832 0.695,0.676 c -3.262,-3.195 -6.609,-6.277 -10.078,-9.289 m 10.281,9.488 0.711,0.715 c 1.746,1.739 3.469,3.489 5.149,5.285 l 0.101,0.098 0.102,0.11 0.316,0.339 2.406,2.625 0.075,0.09 c 0.961,1.055 1.91,2.141 2.839,3.223 l 0.579,0.676 1.82,2.156 0.371,0.437 c 0.777,0.95 1.551,1.914 2.34,2.895 l 0.359,0.457 0.313,0.402 c 0.761,0.953 1.508,1.95 2.258,2.938 l 0.027,0.031 c 1.605,2.137 3.156,4.285 4.68,6.5 l 0.527,0.773 1.648,2.473 0.547,0.828 0.348,0.559 1.445,2.285 0.703,1.133 c 0.719,1.16 1.422,2.32 2.102,3.512 0.523,0.89 1.043,1.796 1.531,2.714 l 0.317,0.567 h 0.015 l 0.703,1.308 c 0.512,0.95 1.016,1.914 1.52,2.875 0.605,1.153 1.191,2.325 1.754,3.504 l 0.199,0.379 0.113,0.266 c 0.516,1.047 1.02,2.09 1.492,3.152 l 0.258,0.547 c 0.504,1.113 1.008,2.258 1.496,3.391 l 0.266,0.625 c 0.254,0.574 0.496,1.148 0.738,1.726 -9.761,-23.695 -24.34,-44.074 -42.168,-61.594 m 42.434,62.25 c 0.23,0.571 0.457,1.137 0.676,1.711 l 0.172,0.457 0.703,1.836 0.488,1.27 0.305,0.84 c 0.429,1.191 0.843,2.383 1.265,3.594 l 0.153,0.468 c 0.461,1.375 0.906,2.754 1.336,4.153 0.445,1.445 0.878,2.918 1.292,4.414 l 0.098,0.398 c 0.375,1.301 0.719,2.598 1.051,3.906 l 0.172,0.672 0.531,2.199 0.059,0.286 h 0.011 c 0.215,0.933 0.434,1.882 0.633,2.828 l 0.43,2.062 0.086,0.41 c 0.172,0.926 0.359,1.875 0.543,2.825 0.176,0.945 0.347,1.914 0.504,2.871 l 0.117,0.672 c 0.289,1.679 0.539,3.386 0.773,5.109 l 0.086,0.699 c 0.348,2.563 0.629,5.168 0.871,7.793 l 0.047,0.402 c 0.168,1.797 0.274,3.606 0.406,5.411 l 0.051,1.043 0.149,2.687 0.011,0.149 c 0.055,1.445 0.102,2.91 0.145,4.394 l 0.027,1.688 c 0.016,1.046 0.032,2.089 0.032,3.156 v -2.531 c -0.301,-25.2 -5.02,-47.731 -13.223,-67.872" /></clipPath><linearGradient
       id="linearGradient112"
       spreadMethod="pad"
       gradientTransform="matrix(925.515,357.292,357.292,-925.515,537.775,197.243)"
       gradientUnits="userSpaceOnUse"
       y2="0"
       x2="1"
       y1="0"
       x1="0"><stop
         id="stop104"
         offset="0"
         style="stop-opacity:1;stop-color:#33cc99" /><stop
         id="stop106"
         offset="0.00732846"
         style="stop-opacity:1;stop-color:#33cc99" /><stop
         id="stop108"
         offset="0.612003"
         style="stop-opacity:1;stop-color:#175c46" /><stop
         id="stop110"
         offset="1"
         style="stop-opacity:1;stop-color:#124737" /></linearGradient></defs><g
     transform="matrix(1.3333333,0,0,-1.3333333,0,136.32)"
     id="g10"><g
       transform="scale(0.1)"
       id="g12"><path
         id="path14"
         style="fill:#0062ff;fill-opacity:1;fill-rule:nonzero;stroke:none"
         d="m 1356.35,663.039 h -195.37 v 115.129 h 532.04 V 663.039 h -195.37 v -495.41 h -141.3 v 495.41" /><path
         id="path16"
         style="fill:#0062ff;fill-opacity:1;fill-rule:nonzero;stroke:none"
         d="m 1992.85,402.246 c 0,81.113 -51.45,129.965 -119.49,129.965 -68.03,0 -120.36,-48.852 -120.36,-129.965 0,-81.109 52.33,-129.961 120.36,-129.961 68.04,0 119.49,48.852 119.49,129.961 z m -377.66,0 c 0,141.301 109.03,241.606 258.17,241.606 149.15,0 257.29,-100.305 257.29,-241.606 0,-141.297 -108.14,-241.598 -257.29,-241.598 -149.14,0 -258.17,100.301 -258.17,241.598" /><path
         id="path18"
         style="fill:#0062ff;fill-opacity:1;fill-rule:nonzero;stroke:none"
         d="m 2431.59,351.66 -65.41,-64.539 V 167.629 h -136.06 v 647.168 h 136.06 V 448.48 l 198.86,188.387 h 162.22 L 2531.89,438.012 2744.71,167.629 H 2579.86 L 2431.59,351.66" /><path
         id="path20"
         style="fill:#0062ff;fill-opacity:1;fill-rule:nonzero;stroke:none"
         d="m 3117.15,190.305 c -27.91,-20.059 -68.9,-29.657 -110.77,-29.657 -110.76,0 -175.31,56.7 -175.31,168.336 v 192.754 h -72.38 v 104.668 h 72.38 v 114.262 h 136.06 V 626.406 h 116.88 V 521.738 H 2967.13 V 330.727 c 0,-40.118 21.81,-61.926 58.44,-61.926 20.06,0 40.13,6.101 54.95,17.453 l 36.63,-95.949" /><path
         id="path22"
         style="fill:#0062ff;fill-opacity:1;fill-rule:nonzero;stroke:none"
         d="m 3481.75,315.902 v 47.965 h -93.33 c -63.67,0 -83.73,-23.543 -83.73,-54.937 0,-34.028 28.78,-56.7 76.76,-56.7 45.35,0 84.6,20.934 100.3,63.672 z m 136.06,119.493 V 167.629 h -127.34 v 58.437 c -25.29,-42.734 -74.14,-65.418 -143.04,-65.418 -109.9,0 -175.31,61.051 -175.31,142.168 0,82.86 58.44,140.426 201.48,140.426 h 108.15 c 0,58.442 -34.89,92.453 -108.15,92.453 -49.72,0 -101.18,-16.574 -135.2,-43.613 l -48.84,95.078 c 51.46,36.633 127.34,56.692 202.35,56.692 143.05,0 225.9,-66.289 225.9,-208.457" /><path
         id="path24"
         style="fill:#0062ff;fill-opacity:1;fill-rule:nonzero;stroke:none"
         d="m 3704.17,211.242 45.36,97.688 c 41.87,-27.043 105.53,-45.364 163.1,-45.364 62.79,0 86.35,16.575 86.35,42.747 0,76.746 -283.47,-1.75 -283.47,185.769 0,88.965 80.25,151.77 217.18,151.77 64.54,0 136.06,-14.829 180.55,-40.997 l -45.36,-96.82 c -46.23,26.176 -92.46,34.895 -135.19,34.895 -61.06,0 -87.22,-19.192 -87.22,-43.614 0,-80.246 283.46,-2.617 283.46,-187.519 0,-87.219 -81.11,-149.149 -221.53,-149.149 -79.37,0 -159.61,21.805 -203.23,50.594" /><path
         id="path26"
         style="fill:#0062ff;fill-opacity:1;fill-rule:nonzero;stroke:none"
         d="m 4564.16,402.246 c 0,81.113 -51.45,129.965 -119.48,129.965 -68.04,0 -120.37,-48.852 -120.37,-129.965 0,-81.109 52.33,-129.961 120.37,-129.961 68.03,0 119.48,48.852 119.48,129.961 z m -377.65,0 c 0,141.301 109.02,241.606 258.17,241.606 149.14,0 257.3,-100.305 257.3,-241.606 0,-141.297 -108.16,-241.598 -257.3,-241.598 -149.15,0 -258.17,100.301 -258.17,241.598" /><path
         id="path28"
         style="fill:#0062ff;fill-opacity:1;fill-rule:nonzero;stroke:none"
         d="m 4950.58,626.406 h 120.36 V 521.738 H 4954.07 V 167.629 H 4818 v 354.109 h -72.38 V 626.406 H 4818 v 20.93 c 0,105.535 64.55,174.441 181.42,174.441 38.38,0 78.5,-7.847 103.8,-25.293 l -35.76,-98.562 c -14.83,10.469 -34.02,16.57 -54.96,16.57 -40.11,0 -61.92,-21.804 -61.92,-68.023 v -20.063" /><path
         id="path30"
         style="fill:#0062ff;fill-opacity:1;fill-rule:nonzero;stroke:none"
         d="m 5450.36,190.305 c -27.91,-20.059 -68.91,-29.657 -110.78,-29.657 -110.76,0 -175.31,56.7 -175.31,168.336 v 192.754 h -72.38 v 104.668 h 72.38 v 114.262 h 136.07 V 626.406 h 116.87 V 521.738 H 5300.34 V 330.727 c 0,-40.118 21.8,-61.926 58.43,-61.926 20.06,0 40.13,6.101 54.95,17.453 l 36.64,-95.949" /><path
         id="path32"
         style="fill:#0062ff;fill-opacity:1;fill-rule:evenodd;stroke:none"
         d="M 390.258,184.934 0.949219,196.254 c 0,49.742 0,145.976 0,210.125 V 801.84 c 0,63.133 26.914081,120.316 69.832081,160.629 39.5157,37.129 92.6137,59.951 150.7537,59.951 h 517.602 c 65.312,0 124.258,-28.803 164.746,-74.338 34.68,-39.008 55.82,-90.285 55.82,-146.242 V 406.379 c 0,-122.137 -99.305,-221.445 -220.566,-221.445 H 564.254 390.258" /><path
         id="path34"
         style="fill:#33cc99;fill-opacity:1;fill-rule:nonzero;stroke:none"
         d="M 959.688,426.508 V 219.816 C 958.922,159.609 934.266,105.168 894.77,65.5195 854.445,25.0508 798.652,0 737.008,0 H 222.711 C 164.586,0 111.66,22.2695 71.9961,58.7422 27.7383,99.4453 0,157.836 0,222.699 v 257.176 c 0,2.195 0.0117188,4.375 0.0429688,6.531 0.015625,1.418 0.03125,2.824 0.0742192,4.231 0.027343,1.769 0.066406,3.523 0.109375,5.265 0.074218,2.832 0.1875,5.645 0.320312,8.407 0.042969,1.191 0.097656,2.375 0.167969,3.543 l 0.03125,0.785 c 0.074219,1.172 0.128906,2.351 0.199219,3.515 0.703127,11.688 1.785157,22.871 3.214847,33.543 0.11718,0.918 0.24218,1.856 0.39062,2.774 0.15625,1.172 0.32422,2.351 0.5,3.523 0.21875,1.438 0.42969,2.871 0.66016,4.301 0.27344,1.687 0.54687,3.379 0.84375,5.047 0.28906,1.691 0.59375,3.371 0.90625,5.051 0.30078,1.668 0.63281,3.328 0.96094,4.968 0.27343,1.36 0.54687,2.727 0.83593,4.051 0.28516,1.352 0.57032,2.707 0.87499,4.035 0.211,0.969 0.4297,1.914 0.6563,2.86 0.289,1.293 0.5898,2.582 0.9023,3.859 0.3203,1.25 0.6211,2.5 0.9336,3.731 0.2891,1.152 0.5938,2.293 0.9102,3.429 0.2539,0.996 0.5117,1.961 0.7851,2.938 0.2735,0.996 0.5469,1.98 0.836,2.961 l 0.1718,0.601 c 0.3985,1.379 0.7969,2.758 1.2188,4.125 0.3281,1.102 0.6719,2.203 1.0156,3.309 0.4063,1.289 0.8047,2.566 1.2344,3.828 l 0.0742,0.234 c 0.3984,1.223 0.8008,2.422 1.207,3.614 l 0.3555,1.015 c 0.457,1.36 0.9336,2.688 1.4219,4.004 0.3867,1.082 0.7734,2.156 1.1914,3.223 0.6445,1.746 1.3047,3.469 1.9961,5.176 0.3984,1.035 0.8164,2.07 1.2461,3.086 0.7617,1.863 1.539,3.703 2.3242,5.507 0.5039,1.184 1.0195,2.344 1.5508,3.489 6.2422,13.816 13.2148,26.218 20.7031,37.324 l 1.582,2.324 0.3867,0.566 1.6055,2.274 1.5625,2.168 1.4375,1.953 c 0.9453,1.277 1.8945,2.527 2.8711,3.77 l 1.9219,2.441 1.4062,1.738 1.6367,1.985 2.168,2.546 2.1797,2.5 c 3.7188,4.192 7.4922,8.133 11.3203,11.856 1.0352,1.016 2.082,2.004 3.1172,2.969 0.9297,0.879 1.8633,1.718 2.7969,2.57 5.039,4.531 10.1172,8.711 15.2106,12.527 l 2.399,1.77 2.152,1.543 c 1.68,1.187 3.344,2.344 5.004,3.457 l 2.383,1.562 2.367,1.52 2.367,1.484 c 1.578,0.981 3.16,1.907 4.711,2.817 l 2.336,1.328 c 3.918,2.215 7.777,4.234 11.566,6.082 1.454,0.703 2.899,1.394 4.321,2.051 1.433,0.664 2.84,1.3 4.23,1.894 l 2.082,0.906 c 4.164,1.77 8.184,3.313 12.039,4.692 l 1.782,0.633 c 9.699,3.371 18.296,5.586 25.152,7.031 l 2.324,0.488 0.176,0.027 1.273,0.247 1.25,0.234 1.18,0.215 c 2.309,0.398 4.305,0.703 5.926,0.918 l 0.789,0.097 0.316,0.039 0.672,0.09 0.977,0.098 0.531,0.055 c 1.148,0.121 1.766,0.16 1.766,0.16 V 601.848 H 389.152 V 186.352 h 181.379 0.016 c 0,0 0.863,0 2.5,0.035 l 0.398,0.023 c 1.778,0.035 4.375,0.117 7.676,0.242 l 1.422,0.071 c 2.043,0.086 4.293,0.203 6.773,0.332 1.051,0.058 2.137,0.117 3.254,0.183 l 0.176,0.02 0.52,0.031 c 1.289,0.066 2.636,0.152 4.027,0.25 l 0.805,0.039 0.429,0.031 2.082,0.157 0.457,0.031 h 0.016 l 0.746,0.058 1.223,0.086 0.66,0.047 c 1.449,0.11 2.93,0.227 4.445,0.344 l 2.555,0.215 0.117,0.012 c 1.133,0.086 2.266,0.183 3.445,0.293 l 0.102,0.007 2.008,0.176 0.332,0.028 1.101,0.097 c 1.176,0.121 2.383,0.238 3.59,0.344 l 0.817,0.09 1.132,0.094 0.375,0.05 1.532,0.157 1.019,0.097 c 13.805,1.426 29.547,3.399 46.512,6.164 l 2.637,0.426 c 3.215,0.531 6.472,1.086 9.758,1.684 l 1.824,0.32 2.394,0.43 1.121,0.222 c 2.871,0.532 5.782,1.086 8.711,1.672 2.45,0.488 4.918,0.996 7.403,1.516 1.449,0.301 2.914,0.613 4.394,0.926 l 0.024,0.019 2.027,0.442 c 3.414,0.73 6.875,1.519 10.332,2.343 1.375,0.332 2.77,0.653 4.145,1.004 1.39,0.324 2.785,0.653 4.175,1.016 1.391,0.344 2.782,0.703 4.188,1.062 1.523,0.383 3.043,0.793 4.582,1.192 1.273,0.324 2.551,0.675 3.832,1.027 2.371,0.637 4.73,1.301 7.098,1.984 l 1.339,0.387 c 2.828,0.805 5.641,1.633 8.465,2.5 4.246,1.289 8.481,2.641 12.696,4.047 1.406,0.457 2.828,0.926 4.234,1.414 l 0.605,0.207 c 1.207,0.418 2.414,0.828 3.614,1.258 0.992,0.351 1.984,0.691 2.972,1.055 1.825,0.644 3.645,1.3 5.45,1.992 1.414,0.515 2.804,1.047 4.21,1.582 1.258,0.469 2.524,0.957 3.77,1.457 1.738,0.672 3.461,1.355 5.168,2.066 1.187,0.473 2.363,0.961 3.559,1.465 1.375,0.578 2.757,1.164 4.136,1.75 1.375,0.574 2.75,1.184 4.114,1.797 1.363,0.605 2.73,1.223 4.093,1.836 1.242,0.555 2.481,1.133 3.715,1.711 l 0.356,0.164 c 4.25,1.984 8.468,4.055 12.617,6.199 1.133,0.586 2.265,1.184 3.398,1.777 1.309,0.696 2.629,1.399 3.918,2.114 l 1.16,0.633 1.11,0.617 0.933,0.515 1.192,0.672 0.945,0.539 0.66,0.379 0.946,0.547 1.378,0.793 2.383,1.406 1.578,0.95 c 1.036,0.601 2.051,1.226 3.071,1.875 1.148,0.703 2.297,1.433 3.441,2.168 l 0.305,0.183 2.508,1.621 0.66,0.43 c 1.105,0.723 2.195,1.457 3.285,2.195 l 0.316,0.219 c 1.207,0.809 2.399,1.641 3.578,2.469 l 0.532,0.39 0.066,0.039 c 1.094,0.762 2.168,1.536 3.242,2.325 l 0.117,0.089 c 3.606,2.606 7.133,5.321 10.563,8.133 l 0.473,0.391 1.304,1.094 1.567,1.289 0.199,0.164 c 1.031,0.871 2.066,1.738 3.086,2.66 l 2.387,2.125 0.828,0.734 0.015,0.008 0.575,0.539 2.593,2.403 1.407,1.335 0.863,0.832 0.844,0.821 0.765,0.769 c 1.746,1.739 3.469,3.489 5.149,5.285 l 0.101,0.098 0.102,0.11 0.316,0.339 2.406,2.625 0.075,0.09 c 0.961,1.055 1.91,2.141 2.839,3.223 l 0.579,0.676 1.82,2.156 0.371,0.437 c 0.777,0.95 1.551,1.914 2.34,2.895 l 0.359,0.457 0.313,0.402 c 0.761,0.953 1.508,1.95 2.258,2.938 l 0.027,0.031 c 1.605,2.137 3.156,4.285 4.68,6.5 l 0.527,0.773 1.648,2.473 0.547,0.828 0.348,0.559 1.445,2.285 0.703,1.133 c 0.719,1.16 1.422,2.32 2.102,3.512 0.523,0.89 1.043,1.796 1.531,2.714 l 0.317,0.567 h 0.015 l 0.703,1.308 c 0.512,0.95 1.016,1.914 1.52,2.875 0.605,1.153 1.191,2.325 1.754,3.504 l 0.199,0.379 0.113,0.266 c 0.516,1.047 1.02,2.09 1.492,3.152 l 0.258,0.547 c 0.504,1.113 1.008,2.258 1.496,3.391 l 0.266,0.625 c 0.594,1.347 1.148,2.715 1.68,4.093 l 0.172,0.457 0.703,1.836 0.488,1.27 0.305,0.84 c 0.429,1.191 0.843,2.383 1.265,3.594 l 0.153,0.468 c 0.461,1.375 0.906,2.754 1.336,4.153 0.445,1.445 0.878,2.918 1.292,4.414 l 0.098,0.398 c 0.375,1.301 0.719,2.598 1.051,3.906 l 0.172,0.672 0.531,2.199 0.059,0.286 h 0.011 c 0.215,0.933 0.434,1.882 0.633,2.828 l 0.43,2.062 0.086,0.41 c 0.172,0.926 0.359,1.875 0.543,2.825 0.176,0.945 0.347,1.914 0.504,2.871 l 0.117,0.672 c 0.289,1.679 0.539,3.386 0.773,5.109 l 0.086,0.699 c 0.348,2.563 0.629,5.168 0.871,7.793 l 0.047,0.402 c 0.168,1.797 0.274,3.606 0.406,5.411 l 0.051,1.043 0.149,2.687 0.011,0.149 c 0.055,1.445 0.102,2.91 0.145,4.394 l 0.027,1.688 c 0.016,1.046 0.032,2.089 0.032,3.156" /><g
         id="g36"><g
           clip-path="url(#clipPath42)"
           id="g38"><path
             id="path54"
             style="fill:url(#linearGradient52);fill-opacity:1;fill-rule:nonzero;stroke:none"
             d="m 4.47656,547.992 c 0.10938,0.801 0.22266,1.598 0.33985,2.391 C 4.72266,549.746 4.63672,549.105 4.55078,548.469 4.52344,548.309 4.5,548.152 4.47656,547.992 m 0.57032,3.969 c 0.05468,0.355 0.10937,0.727 0.16406,1.082 -0.05469,-0.352 -0.10547,-0.699 -0.16016,-1.051 0,-0.008 0,-0.019 -0.0039,-0.031 m 1.49218,9.293 c 0.01563,0.078 0.03125,0.168 0.04297,0.25 -0.00781,-0.055 -0.01562,-0.109 -0.02734,-0.164 -0.00391,-0.027 -0.00781,-0.059 -0.01563,-0.086 m 4.11724,20.5 c 0.0898,0.387 0.1796,0.769 0.2695,1.152 -0.0469,-0.199 -0.0899,-0.398 -0.1367,-0.601 -0.043,-0.184 -0.086,-0.367 -0.1328,-0.551 m 2.7187,10.988 c 0.1094,0.418 0.2188,0.836 0.332,1.254 -0.0586,-0.223 -0.1172,-0.449 -0.1718,-0.672 -0.0547,-0.195 -0.1094,-0.386 -0.1602,-0.582 m 3.1094,10.996 c 0.039,0.137 0.082,0.278 0.1211,0.414 -0.0196,-0.066 -0.0391,-0.136 -0.0586,-0.203 -0.0235,-0.07 -0.043,-0.14 -0.0625,-0.211 m 2.2148,7.055 c 0.0781,0.242 0.1641,0.508 0.2461,0.754 -0.0234,-0.078 -0.0508,-0.152 -0.0742,-0.227 l -0.0742,-0.234 c -0.0313,-0.098 -0.0664,-0.195 -0.0977,-0.293 m 3.0938,8.992 c 0.0429,0.117 0.0898,0.25 0.1328,0.367 -0.0235,-0.066 -0.0469,-0.132 -0.0703,-0.199 -0.0235,-0.055 -0.043,-0.109 -0.0625,-0.168 m 1.125,3.059 c 0.1367,0.367 0.2695,0.722 0.4101,1.09 -0.0937,-0.25 -0.1875,-0.504 -0.2812,-0.758 -0.043,-0.113 -0.086,-0.223 -0.1289,-0.332 m 1.957,5.094 c 0.0938,0.238 0.1914,0.48 0.2852,0.718 -0.0391,-0.101 -0.0782,-0.203 -0.1172,-0.304 -0.0547,-0.137 -0.1133,-0.278 -0.168,-0.414 m 1.2969,3.226 c 0.3008,0.731 0.6054,1.461 0.9062,2.188 -0.2656,-0.637 -0.5273,-1.274 -0.789,-1.914 -0.0391,-0.09 -0.0782,-0.184 -0.1172,-0.274 m 3.8633,8.984 c 1.3281,2.95 2.6875,5.832 4.082,8.653 -1.3477,-2.731 -2.6641,-5.52 -3.9531,-8.367 -0.043,-0.094 -0.086,-0.192 -0.1289,-0.286 m 17.3632,32.309 c 1.7461,2.754 3.5274,5.434 5.3321,8.035 l -0.2813,-0.41 -1.582,-2.324 c -1.168,-1.738 -2.3242,-3.5 -3.4688,-5.301 m 5.5704,8.379 c 1.4687,2.109 2.9492,4.164 4.4492,6.18 l -1.4141,-1.926 -1.5625,-2.168 -1.4726,-2.086 m 7.3242,9.953 c 0.5781,0.746 1.1523,1.473 1.7383,2.203 l -1.7188,-2.179 c -0.0078,-0.008 -0.0117,-0.016 -0.0195,-0.024 m 2.2656,2.863 c 0.3086,0.391 0.6289,0.786 0.9414,1.168 l -0.9414,-1.168 m 1.1914,1.469 c 0.4336,0.535 0.8789,1.074 1.3203,1.602 L 63.75,695.121 m 1.6641,2.016 c 1.3437,1.605 2.707,3.187 4.0703,4.726 l -2.0391,-2.34 -2.0312,-2.386 m 22.8828,23.562 c 1.875,1.66 3.75,3.27 5.6367,4.828 -1.8828,-1.562 -3.7617,-3.172 -5.6367,-4.828 m 115.8481,3.149 h -0.004 v 49.535 c 0,0 -0.618,-0.039 -1.766,-0.16 l -0.531,-0.055 -0.961,-0.098 c 2.117,0.25 3.262,0.321 3.262,0.321 v -49.543 m -101.176,8.761 c 0.371,0.278 0.75,0.551 1.117,0.825 l -1.117,-0.825 m 1.719,1.262 c 1.789,1.301 3.57,2.551 5.351,3.77 -1.137,-0.778 -2.273,-1.571 -3.418,-2.383 l -1.933,-1.387 m 7.171,4.996 c 2.121,1.414 4.231,2.77 6.336,4.074 l -1.82,-1.144 -2.367,-1.52 -2.149,-1.41 m 12.297,7.629 c 1.27,0.731 2.524,1.434 3.782,2.129 -0.715,-0.395 -1.43,-0.797 -2.149,-1.199 l -1.633,-0.93 m 13.211,7.02 c 1.586,0.769 3.153,1.511 4.707,2.226 -0.133,-0.058 -0.265,-0.121 -0.398,-0.183 -1.418,-0.653 -2.86,-1.344 -4.309,-2.043 m 6.918,3.23 c 1.117,0.496 2.219,0.977 3.317,1.445 l -1.696,-0.738 c -0.535,-0.23 -1.078,-0.465 -1.621,-0.707 m 7.621,3.231 c 14.949,6.011 28.004,9.367 37.328,11.214 l -2.273,-0.476 c -6.856,-1.445 -15.453,-3.66 -25.152,-7.031 l -1.782,-0.633 c -2.632,-0.942 -5.343,-1.961 -8.121,-3.074 m 37.399,11.23 c 5.047,1 8.992,1.559 11.543,1.859 l -0.653,-0.086 -0.316,-0.039 -0.789,-0.097 c -1.621,-0.215 -3.617,-0.52 -5.926,-0.918 l -1.18,-0.215 -1.25,-0.234 -1.273,-0.247 -0.156,-0.023" /></g></g><g
         id="g56"><g
           clip-path="url(#clipPath62)"
           id="g58"><path
             id="path74"
             style="fill:url(#linearGradient72);fill-opacity:1;fill-rule:nonzero;stroke:none"
             d="m 0.949219,512.152 c 0.753911,12.536 1.945311,24.477 3.527341,35.84 0.02344,0.16 0.04688,0.317 0.07422,0.477 0.08594,0.636 0.17188,1.277 0.26563,1.914 0.07812,0.535 0.15234,1.047 0.23047,1.578 0.0039,0.012 0.0039,0.023 0.0039,0.031 0.05469,0.352 0.10547,0.699 0.16016,1.051 0.41797,2.773 0.86328,5.504 1.32812,8.211 0.00782,0.027 0.01172,0.059 0.01563,0.086 0.01172,0.055 0.01953,0.109 0.02734,0.164 1.21094,6.98 2.57031,13.719 4.07427,20.25 0.0468,0.184 0.0898,0.367 0.1328,0.551 0.0468,0.203 0.0898,0.402 0.1367,0.601 0.7773,3.336 1.5976,6.617 2.4492,9.836 0.0508,0.196 0.1055,0.387 0.1602,0.582 0.0546,0.223 0.1132,0.449 0.1718,0.672 0.8907,3.309 1.8125,6.555 2.7774,9.742 0.0195,0.071 0.039,0.141 0.0625,0.211 0.0195,0.067 0.039,0.137 0.0586,0.203 0.6836,2.246 1.375,4.45 2.0937,6.641 0.0313,0.098 0.0664,0.195 0.0977,0.293 l 0.0742,0.234 c 0.0234,0.075 0.0508,0.149 0.0742,0.227 0.9258,2.801 1.8672,5.531 2.8477,8.238 0.0195,0.059 0.039,0.113 0.0625,0.168 0.0234,0.067 0.0468,0.133 0.0703,0.199 0.3242,0.899 0.6601,1.801 0.9922,2.692 0.0429,0.109 0.0859,0.219 0.1289,0.332 0.0937,0.254 0.1875,0.508 0.2812,0.758 0.5078,1.343 1.0274,2.683 1.5469,4.004 0.0547,0.136 0.1133,0.277 0.168,0.414 0.039,0.101 0.0781,0.203 0.1172,0.304 0.3359,0.844 0.6718,1.672 1.0117,2.508 0.039,0.09 0.0781,0.184 0.1172,0.274 0.2617,0.64 0.5234,1.277 0.789,1.914 0.9649,2.304 1.9532,4.57 2.9571,6.796 0.0429,0.094 0.0859,0.192 0.1289,0.286 1.289,2.847 2.6054,5.636 3.9531,8.367 4.168,8.441 8.6172,16.316 13.2812,23.656 1.1446,1.801 2.3008,3.563 3.4688,5.301 l 1.582,2.324 0.2813,0.41 c 0.082,0.117 0.1601,0.231 0.2383,0.344 l 1.4726,2.086 1.5625,2.168 1.4141,1.926 c 0.9492,1.269 1.9179,2.543 2.875,3.773 0.0078,0.008 0.0117,0.016 0.0195,0.024 l 1.7188,2.179 c 0.1757,0.227 0.3476,0.442 0.5273,0.66 L 63.5,694.82 c 0.0859,0.102 0.1641,0.2 0.25,0.301 l 1.3203,1.602 c 0.1172,0.14 0.2266,0.269 0.3438,0.414 l 2.0312,2.386 2.0391,2.34 c 6.1289,6.926 12.4336,13.18 18.8125,18.836 1.875,1.656 3.7539,3.266 5.6367,4.828 3.0039,2.489 6.0234,4.844 9.0354,7.082 l 1.117,0.825 c 0.203,0.148 0.398,0.289 0.602,0.437 l 1.933,1.387 c 1.145,0.812 2.281,1.605 3.418,2.383 0.602,0.41 1.219,0.824 1.82,1.226 l 2.149,1.41 2.367,1.52 1.82,1.144 c 1.996,1.231 3.989,2.418 5.961,3.555 l 1.633,0.93 c 0.719,0.402 1.434,0.804 2.149,1.199 3.183,1.746 6.335,3.375 9.429,4.891 1.449,0.699 2.891,1.39 4.309,2.043 0.133,0.062 0.265,0.125 0.398,0.183 0.739,0.34 1.481,0.676 2.211,1.004 0.543,0.242 1.086,0.477 1.621,0.707 l 1.696,0.738 c 1.445,0.618 2.89,1.215 4.304,1.786 2.778,1.113 5.489,2.132 8.121,3.074 l 1.782,0.633 c 9.699,3.371 18.296,5.586 25.152,7.031 l 2.273,0.476 c 0.024,0.004 0.047,0.012 0.071,0.016 l 0.156,0.023 1.273,0.247 1.25,0.234 1.18,0.215 c 2.309,0.398 4.305,0.703 5.926,0.918 l 0.789,0.097 0.316,0.039 0.653,0.086 c 0.011,0 0.023,0.004 0.035,0.004 l 0.961,0.098 0.531,0.055 c 1.148,0.121 1.766,0.16 1.766,0.16 v -49.535 h -5.653 c 0,0 -162.4919,-10.094 -197.538781,-211.696" /></g></g><g
         id="g76"><g
           clip-path="url(#clipPath82)"
           id="g78"><path
             id="path94"
             style="fill:url(#linearGradient92);fill-opacity:1;fill-rule:nonzero;stroke:none"
             d="m 570.551,186.359 v 49.532 h 5.652 c 0,0 335.625,2.656 383.5,192.922 v -2.297 c 0,-0.856 -0.008,-1.692 -0.015,-2.539 v 2.531 c 0,-1.067 -0.016,-2.11 -0.032,-3.156 l -0.027,-1.688 c -0.043,-1.484 -0.09,-2.949 -0.145,-4.394 l -0.011,-0.149 -0.149,-2.687 -0.051,-1.043 c -0.132,-1.805 -0.238,-3.614 -0.406,-5.411 l -0.047,-0.402 c -0.242,-2.625 -0.523,-5.23 -0.871,-7.793 l -0.086,-0.699 c -0.234,-1.723 -0.484,-3.43 -0.773,-5.109 l -0.117,-0.672 c -0.157,-0.957 -0.328,-1.926 -0.504,-2.871 -0.184,-0.95 -0.371,-1.899 -0.543,-2.825 l -0.086,-0.41 -0.43,-2.062 c -0.199,-0.946 -0.418,-1.895 -0.633,-2.828 h -0.011 l -0.059,-0.286 -0.531,-2.199 -0.172,-0.672 c -0.332,-1.308 -0.676,-2.605 -1.051,-3.906 l -0.098,-0.398 c -0.414,-1.496 -0.847,-2.969 -1.292,-4.414 -0.43,-1.399 -0.875,-2.778 -1.336,-4.153 l -0.153,-0.468 c -0.422,-1.211 -0.836,-2.403 -1.265,-3.594 l -0.305,-0.84 -0.488,-1.27 -0.703,-1.836 -0.172,-0.457 c -0.219,-0.574 -0.446,-1.14 -0.676,-1.711 -0.086,-0.218 -0.176,-0.437 -0.266,-0.656 -0.242,-0.578 -0.484,-1.152 -0.738,-1.726 l -0.266,-0.625 c -0.488,-1.133 -0.992,-2.278 -1.496,-3.391 l -0.258,-0.547 c -0.472,-1.062 -0.976,-2.105 -1.492,-3.152 l -0.113,-0.266 -0.199,-0.379 c -0.563,-1.179 -1.149,-2.351 -1.754,-3.504 -0.504,-0.961 -1.008,-1.925 -1.52,-2.875 l -0.703,-1.308 h -0.015 l -0.317,-0.567 c -0.488,-0.918 -1.008,-1.824 -1.531,-2.714 -0.68,-1.192 -1.383,-2.352 -2.102,-3.512 l -0.703,-1.133 -1.445,-2.285 -0.348,-0.559 -0.547,-0.828 -1.648,-2.473 -0.527,-0.773 c -1.524,-2.215 -3.075,-4.363 -4.68,-6.5 l -0.027,-0.031 c -0.75,-0.988 -1.497,-1.985 -2.258,-2.938 l -0.313,-0.402 -0.359,-0.457 c -0.789,-0.981 -1.563,-1.945 -2.34,-2.895 l -0.371,-0.437 -1.82,-2.156 -0.579,-0.676 c -0.929,-1.082 -1.878,-2.168 -2.839,-3.223 l -0.075,-0.09 -2.406,-2.625 -0.316,-0.339 -0.102,-0.11 -0.101,-0.098 c -1.68,-1.796 -3.403,-3.546 -5.149,-5.285 l -0.711,-0.715 c -0.058,-0.058 -0.14,-0.14 -0.203,-0.199 l -0.695,-0.676 -0.863,-0.832 -1.407,-1.335 -2.593,-2.403 -0.575,-0.539 -0.015,-0.008 -0.828,-0.734 -2.387,-2.125 c -0.235,-0.215 -0.477,-0.426 -0.715,-0.637 -0.32,-0.277 -0.664,-0.574 -0.988,-0.851 -0.457,-0.395 -0.922,-0.782 -1.383,-1.172 l -0.199,-0.164 -1.567,-1.289 -1.304,-1.094 -0.473,-0.391 c -0.371,-0.304 -0.738,-0.605 -1.113,-0.906 -2.766,-2.223 -5.586,-4.391 -8.457,-6.508 -0.332,-0.242 -0.661,-0.48 -0.993,-0.719 l -0.117,-0.089 c -0.23,-0.168 -0.461,-0.34 -0.691,-0.508 -0.535,-0.387 -1.098,-0.789 -1.637,-1.176 -0.301,-0.215 -0.605,-0.43 -0.914,-0.641 l -0.066,-0.039 -0.532,-0.39 c -0.031,-0.02 -0.058,-0.039 -0.086,-0.059 -1.066,-0.75 -2.164,-1.508 -3.242,-2.242 -0.082,-0.059 -0.164,-0.113 -0.25,-0.168 l -0.316,-0.219 c -0.176,-0.117 -0.348,-0.234 -0.524,-0.351 -0.937,-0.637 -1.882,-1.266 -2.835,-1.891 l -0.586,-0.383 -2.508,-1.621 -0.305,-0.183 c -1.144,-0.735 -2.293,-1.465 -3.441,-2.168 -0.278,-0.176 -0.551,-0.348 -0.828,-0.524 -0.465,-0.285 -0.93,-0.57 -1.399,-0.851 -0.281,-0.168 -0.562,-0.336 -0.844,-0.5 l -1.578,-0.95 -2.383,-1.406 -1.378,-0.793 -0.946,-0.547 -0.66,-0.379 -0.945,-0.539 -1.192,-0.672 -0.933,-0.515 -1.11,-0.617 -1.16,-0.633 c -1.289,-0.715 -2.609,-1.418 -3.918,-2.114 -1.133,-0.593 -2.265,-1.191 -3.398,-1.777 -0.231,-0.117 -0.461,-0.238 -0.696,-0.355 -3.054,-1.567 -6.132,-3.09 -9.238,-4.578 -0.89,-0.426 -1.789,-0.848 -2.683,-1.266 l -0.356,-0.164 c -1.234,-0.578 -2.473,-1.156 -3.715,-1.711 -1.363,-0.613 -2.73,-1.231 -4.093,-1.836 -0.485,-0.219 -0.973,-0.438 -1.461,-0.652 -0.614,-0.27 -1.207,-0.528 -1.821,-0.793 -0.277,-0.118 -0.554,-0.235 -0.832,-0.352 -1.379,-0.586 -2.761,-1.172 -4.136,-1.75 -0.438,-0.183 -0.872,-0.367 -1.305,-0.547 -0.395,-0.164 -0.789,-0.324 -1.184,-0.488 -0.355,-0.145 -0.715,-0.285 -1.07,-0.43 -0.336,-0.136 -0.672,-0.277 -1.008,-0.414 -1.215,-0.488 -2.414,-0.969 -3.633,-1.449 -0.175,-0.066 -0.351,-0.137 -0.527,-0.203 -0.113,-0.047 -0.23,-0.094 -0.348,-0.141 -0.855,-0.336 -1.711,-0.668 -2.566,-0.996 -0.285,-0.109 -0.57,-0.215 -0.856,-0.32 -1.406,-0.535 -2.796,-1.067 -4.21,-1.582 -0.473,-0.184 -0.95,-0.363 -1.426,-0.539 -0.801,-0.293 -1.571,-0.574 -2.375,-0.867 -0.547,-0.196 -1.098,-0.391 -1.649,-0.586 -0.988,-0.364 -1.98,-0.704 -2.972,-1.055 -1.078,-0.387 -2.161,-0.758 -3.246,-1.133 -1.231,-0.422 -2.457,-0.836 -3.692,-1.25 -0.504,-0.168 -1.012,-0.332 -1.515,-0.496 -1.758,-0.59 -3.52,-1.164 -5.286,-1.73 -4.843,-1.551 -9.683,-3.024 -14.519,-4.43 -0.453,-0.129 -0.903,-0.258 -1.356,-0.387 l -1.078,-0.312 c -5.273,-1.508 -10.531,-2.93 -15.761,-4.274 -0.004,0 -0.008,0 -0.012,-0.004 -0.059,-0.011 -0.117,-0.027 -0.176,-0.043 -2.434,-0.625 -4.832,-1.226 -7.254,-1.816 -0.308,-0.074 -0.621,-0.145 -0.933,-0.219 -0.418,-0.105 -0.84,-0.211 -1.258,-0.312 -4.176,-1.004 -8.325,-1.961 -12.442,-2.868 -0.261,-0.058 -0.519,-0.113 -0.777,-0.167 l -2.027,-0.442 -0.008,-0.008 c -1.696,-0.367 -3.387,-0.722 -5.071,-1.078 -0.355,-0.07 -0.71,-0.144 -1.066,-0.219 -4.566,-0.945 -9.074,-1.832 -13.531,-2.668 -0.285,-0.054 -0.57,-0.105 -0.856,-0.16 l -0.125,-0.023 c -1.738,-0.324 -3.464,-0.637 -5.183,-0.945 l -0.031,-0.004 c -0.008,-0.004 -0.016,-0.004 -0.028,-0.008 -3.465,-0.617 -6.894,-1.207 -10.273,-1.762 l -2.094,-0.34 c -0.699,-0.117 -1.395,-0.226 -2.09,-0.34 -57.281,-9.117 -100.152,-9.457 -100.152,-9.457" /></g></g><g
         id="g96"><g
           clip-path="url(#clipPath102)"
           id="g98"><path
             id="path114"
             style="fill:url(#linearGradient112);fill-opacity:1;fill-rule:nonzero;stroke:none"
             d="m 670.703,195.816 c 0.695,0.114 1.391,0.223 2.09,0.34 l 2.094,0.34 c -1.407,-0.23 -2.793,-0.457 -4.184,-0.68 m 14.457,2.442 c 0.012,0.004 0.02,0.004 0.028,0.008 l 0.031,0.004 c -0.008,0 -0.047,-0.008 -0.059,-0.012 m 5.242,0.957 0.125,0.023 c 0.286,0.055 0.571,0.106 0.856,0.16 -0.332,-0.062 -0.649,-0.121 -0.981,-0.183 m 14.512,2.851 c 0.356,0.075 0.711,0.149 1.066,0.219 -0.351,-0.07 -0.714,-0.148 -1.066,-0.219 m 6.137,1.297 0.008,0.008 2.027,0.442 c 0.258,0.054 0.516,0.109 0.777,0.167 -0.945,-0.21 -1.875,-0.414 -2.812,-0.617 m 15.254,3.485 c 0.418,0.101 0.84,0.207 1.258,0.312 0.312,0.074 0.625,0.145 0.933,0.219 -0.723,-0.176 -1.469,-0.359 -2.191,-0.531 m 9.445,2.347 c 0.059,0.016 0.117,0.032 0.176,0.043 0.004,0.004 0.008,0.004 0.012,0.004 -0.059,-0.015 -0.129,-0.031 -0.188,-0.047 m 15.949,4.321 1.078,0.312 c 0.453,0.129 0.903,0.258 1.356,0.387 -0.809,-0.235 -1.625,-0.469 -2.434,-0.699 m 16.953,5.129 c 1.766,0.566 3.528,1.14 5.286,1.73 0.503,0.164 1.011,0.328 1.515,0.496 -2.265,-0.758 -4.531,-1.5 -6.801,-2.226 m 10.493,3.476 c 1.085,0.375 2.168,0.746 3.246,1.133 0.992,0.351 1.984,0.691 2.972,1.055 0.551,0.195 1.102,0.39 1.649,0.586 -2.61,-0.946 -5.25,-1.875 -7.867,-2.774 m 10.242,3.641 c 0.476,0.176 0.953,0.355 1.426,0.539 1.414,0.515 2.804,1.047 4.21,1.582 0.286,0.105 0.571,0.211 0.856,0.32 -2.152,-0.824 -4.332,-1.648 -6.492,-2.441 m 9.058,3.437 c 0.118,0.047 0.235,0.094 0.348,0.141 0.176,0.066 0.352,0.137 0.527,0.203 -0.293,-0.113 -0.582,-0.23 -0.875,-0.344 m 4.508,1.793 c 0.336,0.137 0.672,0.278 1.008,0.414 0.355,0.145 0.715,0.285 1.07,0.43 -0.687,-0.281 -1.39,-0.566 -2.078,-0.844 m 3.262,1.332 c 0.433,0.18 0.867,0.364 1.305,0.547 1.375,0.578 2.757,1.164 4.136,1.75 0.278,0.117 0.555,0.234 0.832,0.352 -2.082,-0.899 -4.179,-1.785 -6.273,-2.649 m 8.094,3.442 c 0.488,0.214 0.976,0.433 1.461,0.652 1.363,0.605 2.73,1.223 4.093,1.836 1.242,0.555 2.481,1.133 3.715,1.711 l 0.356,0.164 c 0.894,0.418 1.793,0.84 2.683,1.266 -4.066,-1.946 -8.172,-3.821 -12.308,-5.629 m 21.546,10.207 c 0.235,0.117 0.465,0.238 0.696,0.355 1.133,0.586 2.265,1.184 3.398,1.777 1.309,0.696 2.629,1.399 3.918,2.114 l 1.16,0.633 1.11,0.617 0.933,0.515 1.192,0.672 0.945,0.539 0.66,0.379 0.946,0.547 1.378,0.793 2.383,1.406 1.578,0.95 c 0.282,0.164 0.563,0.332 0.844,0.5 -6.863,-4.172 -13.926,-8.098 -21.141,-11.797 m 22.54,12.648 c 0.277,0.176 0.55,0.348 0.828,0.524 1.148,0.703 2.297,1.433 3.441,2.168 l 0.305,0.183 2.508,1.621 0.586,0.383 c -2.516,-1.656 -5.09,-3.289 -7.668,-4.879 m 10.503,6.77 c 0.176,0.117 0.348,0.234 0.524,0.351 l 0.316,0.219 c 0.086,0.055 0.168,0.109 0.25,0.168 -0.367,-0.25 -0.718,-0.492 -1.09,-0.738 m 4.332,2.98 c 0.028,0.02 0.055,0.039 0.086,0.059 l 0.532,0.39 0.066,0.039 c 0.309,0.211 0.613,0.426 0.914,0.641 -0.539,-0.383 -1.055,-0.746 -1.598,-1.129 m 3.235,2.305 c 0.23,0.168 0.461,0.34 0.691,0.508 l 0.117,0.089 c 0.332,0.239 0.661,0.477 0.993,0.719 -0.606,-0.445 -1.196,-0.875 -1.801,-1.316 m 10.258,7.824 c 0.375,0.301 0.742,0.602 1.113,0.906 l 0.473,0.391 1.304,1.094 1.567,1.289 0.199,0.164 c 0.461,0.39 0.926,0.777 1.383,1.172 -1.981,-1.703 -3.992,-3.371 -6.039,-5.016 m 7.027,5.867 c 0.238,0.211 0.48,0.422 0.715,0.637 l 2.387,2.125 0.828,0.734 0.015,0.008 0.575,0.539 2.593,2.403 1.407,1.335 0.863,0.832 0.695,0.676 c -3.262,-3.195 -6.609,-6.277 -10.078,-9.289 m 10.281,9.488 0.711,0.715 c 1.746,1.739 3.469,3.489 5.149,5.285 l 0.101,0.098 0.102,0.11 0.316,0.339 2.406,2.625 0.075,0.09 c 0.961,1.055 1.91,2.141 2.839,3.223 l 0.579,0.676 1.82,2.156 0.371,0.437 c 0.777,0.95 1.551,1.914 2.34,2.895 l 0.359,0.457 0.313,0.402 c 0.761,0.953 1.508,1.95 2.258,2.938 l 0.027,0.031 c 1.605,2.137 3.156,4.285 4.68,6.5 l 0.527,0.773 1.648,2.473 0.547,0.828 0.348,0.559 1.445,2.285 0.703,1.133 c 0.719,1.16 1.422,2.32 2.102,3.512 0.523,0.89 1.043,1.796 1.531,2.714 l 0.317,0.567 h 0.015 l 0.703,1.308 c 0.512,0.95 1.016,1.914 1.52,2.875 0.605,1.153 1.191,2.325 1.754,3.504 l 0.199,0.379 0.113,0.266 c 0.516,1.047 1.02,2.09 1.492,3.152 l 0.258,0.547 c 0.504,1.113 1.008,2.258 1.496,3.391 l 0.266,0.625 c 0.254,0.574 0.496,1.148 0.738,1.726 -9.761,-23.695 -24.34,-44.074 -42.168,-61.594 m 42.434,62.25 c 0.23,0.571 0.457,1.137 0.676,1.711 l 0.172,0.457 0.703,1.836 0.488,1.27 0.305,0.84 c 0.429,1.191 0.843,2.383 1.265,3.594 l 0.153,0.468 c 0.461,1.375 0.906,2.754 1.336,4.153 0.445,1.445 0.878,2.918 1.292,4.414 l 0.098,0.398 c 0.375,1.301 0.719,2.598 1.051,3.906 l 0.172,0.672 0.531,2.199 0.059,0.286 h 0.011 c 0.215,0.933 0.434,1.882 0.633,2.828 l 0.43,2.062 0.086,0.41 c 0.172,0.926 0.359,1.875 0.543,2.825 0.176,0.945 0.347,1.914 0.504,2.871 l 0.117,0.672 c 0.289,1.679 0.539,3.386 0.773,5.109 l 0.086,0.699 c 0.348,2.563 0.629,5.168 0.871,7.793 l 0.047,0.402 c 0.168,1.797 0.274,3.606 0.406,5.411 l 0.051,1.043 0.149,2.687 0.011,0.149 c 0.055,1.445 0.102,2.91 0.145,4.394 l 0.027,1.688 c 0.016,1.046 0.032,2.089 0.032,3.156 v -2.531 c -0.301,-25.2 -5.02,-47.731 -13.223,-67.872" /></g></g><path
         id="path116"
         style="fill:#ffffff;fill-opacity:1;fill-rule:nonzero;stroke:none"
         d="M 570.543,552.199 V 186.352 H 389.16 V 324.57 c 0,20.957 2.235,40.11 6.27,57.532 18.437,80.039 73.929,124.367 117.539,147.507 31.984,16.977 57.574,22.59 57.574,22.59" /><path
         id="path118"
         style="fill:#ffffff;fill-opacity:1;fill-rule:nonzero;stroke:none"
         d="M 204.145,773.391 103.699,601.848 H 389.152 V 374.211 c 0,75.684 29.411,127.324 64.578,162.023 43.145,42.586 101.848,65.614 162.489,65.614 h 139.578 l 99.012,171.535 -650.664,0.008" /></g></g></svg>